# xmcd
#
# Track frame offsets: 
#        182
#        10407
#        22670
#        34182
#        46520
#        54432
#        63057
#        69957
#        80457
#        90320
#        100145
#        110232
#        120882
#        131757
#        141507
#        151445
#        163595
#        177732
#        191757
#        204582
#        216657
#        229820
#        244370
#        253895
#        265482
#        275232
#        284420
#        296007
#
# Disc length: 4050 seconds
#
# Revision: 2
# Processed by: cddbd v1.4PL0 Copyright (c) Steve Scherf et al.
# Submitted via: ExactAudioCopy v0.90b3
#
DISCID=a90fd01c
DTITLE=Jim Reeves - Welcome To My World - Disc 11
DYEAR=1900
DGENRE=Country
TTITLE0=Daar Doer In Die Bosveld (1962)
TTITLE1=Ding Dong (1962)
TTITLE2=Draf Maar Aan Ou Ryperd (1962)
TTITLE3=Die Blonde Matroos (1962)
TTITLE4=Jy Is My Liefling (1962)
TTITLE5=In Die Skadu Van Ou Tafelberg (1962)
TTITLE6=Sarie Marais (1962)
TTITLE7=Geboorteplasie (1962)
TTITLE8=Net 'n Stille Uurtjie (1962)
TTITLE9=Nooietjie Van Die Ou Transvaal (1962)
TTITLE10=Verre Land (1962)
TTITLE11=My Blinde Hart (1962)
TTITLE12=Good Morning Self (1963)
TTITLE13=Is This Me (1963)
TTITLE14=Missing Angel (1963)
TTITLE15=Teardrops On The Rocks (1965)
TTITLE16=Heartbreak In Silhouette (1963)
TTITLE17=Auf Wiedersehen Sweetheart (1963)
TTITLE18=Golden Memories And Silver Tears (1963)
TTITLE19=Blue Canadian Rockies (1963)
TTITLE20=(There'll Be Bluebirds Over) The White Cliffs Of Dover (1963)
TTITLE21=Guilty (1963)
TTITLE22=The Hawaiian Wedding Song (1963)
TTITLE23=True (1963)
TTITLE24=The Old Kalahari (1963)
TTITLE25=I'm Crying Again (1963)
TTITLE26=Tahiti (1963)
TTITLE27=You Are My Love (1963)
EXTD=
EXTT0=
EXTT1=
EXTT2=
EXTT3=
EXTT4=
EXTT5=
EXTT6=
EXTT7=
EXTT8=
EXTT9=
EXTT10=
EXTT11=
EXTT12=
EXTT13=
EXTT14=
EXTT15=
EXTT16=
EXTT17=
EXTT18=
EXTT19=
EXTT20=
EXTT21=
EXTT22=
EXTT23=
EXTT24=
EXTT25=
EXTT26=
EXTT27=
PLAYORDER=
